<svg xmlns="http://www.w3.org/2000/svg" viewBox="0 0 100 100" width="100" height="100" role="img" aria-label="Tracelane">
  <!-- GENERATED by scripts/brand/build-brand-assets.py. Do not hand-edit. -->
  <title>Tracelane</title>
  <g fill="#0D0D0D">
    <path d="M 2,2 L 36.2857,2 L 36.2857,18 L 18,18 L 18,36.2857 L 2,36.2857 Z"/>
    <path d="M 98,2 L 63.7143,2 L 63.7143,18 L 82,18 L 82,36.2857 L 98,36.2857 Z"/>
    <path d="M 2,98 L 36.2857,98 L 36.2857,82 L 18,82 L 18,63.7143 L 2,63.7143 Z"/>
    <path d="M 98,98 L 63.7143,98 L 63.7143,82 L 82,82 L 82,63.7143 L 98,63.7143 Z"/>
    <path d="M 2,43.1429 L 31.7143,43.1429 L 31.7143,56.8571 L 2,56.8571 Z"/>
    <path d="M 68.2857,43.1429 L 98,43.1429 L 98,56.8571 L 68.2857,56.8571 Z"/>
    <circle cx="50" cy="50" r="18.2857"/>
  </g>
</svg>
